<?xml version="1.0" encoding="UTF-8" standalone="no" ?>
<!DOCTYPE svg PUBLIC "-//W3C//DTD SVG 1.1//EN" "http://www.w3.org/Graphics/SVG/1.1/DTD/svg11.dtd">
<svg xmlns="http://www.w3.org/2000/svg" xmlns:xlink="http://www.w3.org/1999/xlink" version="1.1" width="30" height="30" viewBox="0 0 30 30" xml:space="preserve" style="height:30px;">
<desc>Created with Fabric.js 3.6.6</desc>
<defs>
</defs>
<g transform="matrix(0.06 0 0 0.06 14.66 15)"  >
<g style=""   >
		<g transform="matrix(1 0 0 1 -63.95 0)" id="Layer_1"  >
<polygon style="stroke: none; stroke-width: 1; stroke-dasharray: none; stroke-linecap: butt; stroke-dashoffset: 0; stroke-linejoin: miter; stroke-miterlimit: 4; fill: rgb(255,206,84); fill-rule: nonzero; opacity: 1;"  points="123.9,-181.2 -191.85,-181.2 -191.85,138.54 42.64,138.54 127.9,181.2 127.89,138.54 191.85,138.54 191.85,-117.25 " />
</g>
		<g transform="matrix(1 0 0 1 213.16 138.56)" id="Layer_1"  >
<polygon style="stroke: none; stroke-width: 1; stroke-dasharray: none; stroke-linecap: butt; stroke-dashoffset: 0; stroke-linejoin: miter; stroke-miterlimit: 4; fill: rgb(230,233,237); fill-rule: nonzero; opacity: 1;"  points="14.16,-58.63 -14.16,-58.63 -42.64,30.19 0.02,58.63 42.64,30.19 " />
</g>
		<g transform="matrix(1 0 0 1 213.16 -37.31)" id="Layer_1"  >
<path style="stroke: none; stroke-width: 1; stroke-dasharray: none; stroke-linecap: butt; stroke-dashoffset: 0; stroke-linejoin: miter; stroke-miterlimit: 4; fill: rgb(101,109,120); fill-rule: nonzero; opacity: 1;"  transform=" translate(-468.96, -218.49)" d="M 468.977 58.614 c -23.56 0 -42.654 19.086 -42.654 42.638 v 277.104 H 511.6 V 101.253 C 511.6 77.701 492.522 58.614 468.977 58.614 z" stroke-linecap="round" />
</g>
		<g transform="matrix(1 0 0 1 -63.95 43.92)" id="Layer_1"  >
<path style="stroke: none; stroke-width: 1; stroke-dasharray: none; stroke-linecap: butt; stroke-dashoffset: 0; stroke-linejoin: miter; stroke-miterlimit: 4; fill: rgb(101,109,120); fill-rule: nonzero; opacity: 1;"  transform=" translate(-191.85, -299.72)" d="M 319.75 310.378 H 63.95 c -5.887 0 -10.656 -4.777 -10.656 -10.647 c 0 -5.902 4.77 -10.664 10.656 -10.664 h 255.8 c 5.886 0 10.647 4.762 10.647 10.664 C 330.398 305.601 325.636 310.378 319.75 310.378 z" stroke-linecap="round" />
</g>
		<g transform="matrix(1 0 0 1 -63.95 -20.02)" id="Layer_1"  >
<path style="stroke: none; stroke-width: 1; stroke-dasharray: none; stroke-linecap: butt; stroke-dashoffset: 0; stroke-linejoin: miter; stroke-miterlimit: 4; fill: rgb(101,109,120); fill-rule: nonzero; opacity: 1;"  transform=" translate(-191.85, -235.78)" d="M 319.75 246.436 H 63.95 c -5.887 0 -10.656 -4.778 -10.656 -10.664 s 4.77 -10.656 10.656 -10.656 h 255.8 c 5.886 0 10.647 4.77 10.647 10.656 S 325.636 246.436 319.75 246.436 z" stroke-linecap="round" />
</g>
		<g transform="matrix(1 0 0 1 -122.57 -83.97)" id="Layer_1"  >
<path style="stroke: none; stroke-width: 1; stroke-dasharray: none; stroke-linecap: butt; stroke-dashoffset: 0; stroke-linejoin: miter; stroke-miterlimit: 4; fill: rgb(101,109,120); fill-rule: nonzero; opacity: 1;"  transform=" translate(-133.23, -171.83)" d="M 202.506 182.487 H 63.95 c -5.887 0 -10.656 -4.778 -10.656 -10.664 s 4.77 -10.655 10.656 -10.655 h 138.556 c 5.886 0 10.663 4.77 10.663 10.655 C 213.169 177.709 208.392 182.487 202.506 182.487 z" stroke-linecap="round" />
</g>
		<g transform="matrix(1 0 0 1 93.93 -149.22)" id="Layer_1"  >
<polygon style="stroke: none; stroke-width: 1; stroke-dasharray: none; stroke-linecap: butt; stroke-dashoffset: 0; stroke-linejoin: miter; stroke-miterlimit: 4; fill: rgb(246,187,66); fill-rule: nonzero; opacity: 1;"  points="-33.97,-31.97 -33.97,31.97 33.97,31.97 " />
</g>
</g>
</g>
</svg>