<?xml version="1.0" encoding="UTF-8" standalone="no" ?>
<!DOCTYPE svg PUBLIC "-//W3C//DTD SVG 1.1//EN" "http://www.w3.org/Graphics/SVG/1.1/DTD/svg11.dtd">
<svg xmlns="http://www.w3.org/2000/svg" xmlns:xlink="http://www.w3.org/1999/xlink" version="1.1" width="34" height="34" viewBox="0 0 34 34" xml:space="preserve" style="height: 30px;">
<desc>Created with Fabric.js 3.6.6</desc>
<defs>
</defs>
<g transform="matrix(0.07 0 0 0.07 17.05 17.05)"  >
<g style=""   >
		<g transform="matrix(1 0 0 1 0 0)" id="Capa_1"  >
<circle style="stroke: none; stroke-width: 1; stroke-dasharray: none; stroke-linecap: butt; stroke-dashoffset: 0; stroke-linejoin: miter; stroke-miterlimit: 4; fill: rgb(184,186,192); fill-rule: nonzero; opacity: 1;"  cx="0" cy="0" r="240" />
</g>
		<g transform="matrix(1 0 0 1 0 140.38)" id="Capa_1"  >
<path style="stroke: none; stroke-width: 1; stroke-dasharray: none; stroke-linecap: butt; stroke-dashoffset: 0; stroke-linejoin: miter; stroke-miterlimit: 4; fill: rgb(255,255,255); fill-rule: nonzero; opacity: 1;"  transform=" translate(-240, -380.38)" d="M 240 360.07 c -27.944 0 -53.297 -11.991 -72.003 -31.372 c -0.014 11.615 -0.436 28.379 -3.516 40.611 c 2.02 1.235 3.588 3.262 3.894 5.784 c 3.992 32.484 34.781 56.977 71.625 56.977 c 36.836 0 67.625 -24.496 71.625 -56.977 c 0.31 -2.525 1.844 -4.549 3.895 -5.78 c -3.08 -12.233 -3.503 -28.999 -3.517 -40.615 C 293.297 348.079 267.944 360.07 240 360.07 z" stroke-linecap="round" />
</g>
		<g transform="matrix(1 0 0 1 -2.54 130.37)" id="Capa_1"  >
<path style="stroke: none; stroke-width: 1; stroke-dasharray: none; stroke-linecap: butt; stroke-dashoffset: 0; stroke-linejoin: miter; stroke-miterlimit: 4; fill: rgb(215,219,224); fill-rule: nonzero; opacity: 1;"  transform=" translate(-237.46, -370.37)" d="M 310.44 330.174 c -18.549 18.477 -43.242 29.896 -70.44 29.896 c -27.944 0 -53.297 -11.991 -72.003 -31.372 c -0.014 11.615 -0.436 28.379 -3.516 40.611 c 2.02 1.235 3.588 3.262 3.894 5.784 c 1.765 14.359 8.778 27.144 19.223 36.954 C 235.766 405.265 290.437 357.702 310.44 330.174 z" stroke-linecap="round" />
</g>
		<g transform="matrix(1 0 0 1 0 20.07)" id="Capa_1"  >
<path style="stroke: none; stroke-width: 1; stroke-dasharray: none; stroke-linecap: butt; stroke-dashoffset: 0; stroke-linejoin: miter; stroke-miterlimit: 4; fill: rgb(255,255,255); fill-rule: nonzero; opacity: 1;"  transform=" translate(-240, -260.07)" d="M 312 160.07 H 176 c -22.055 0 -40 17.945 -40 40 v 48 c 0 61.758 46.656 112 104 112 s 104 -50.242 104 -112 v -56 C 344 174.426 329.648 160.07 312 160.07 z" stroke-linecap="round" />
</g>
		<g transform="matrix(1 0 0 1 0 -81.17)" id="Capa_1"  >
<path style="stroke: none; stroke-width: 1; stroke-dasharray: none; stroke-linecap: butt; stroke-dashoffset: 0; stroke-linejoin: miter; stroke-miterlimit: 4; fill: rgb(92,84,106); fill-rule: nonzero; opacity: 1;"  transform=" translate(-240, -158.83)" d="M 296 72.07 H 192 c -15.047 0 -27.695 10.438 -31.102 24.449 C 133.359 100.02 112 123.598 112 152.07 v 40 c 0 20.617 8.752 39.851 24 53.52 v -45.52 c 0 -22.055 17.945 -40 40 -40 h 136 c 17.648 0 32 14.355 32 32 v 53.511 c 15.251 -13.667 24 -32.899 24 -53.511 v -48 C 368 104.371 335.703 72.07 296 72.07 z" stroke-linecap="round" />
</g>
		<g transform="matrix(1 0 0 1 0 184)" id="Capa_1"  >
<path style="stroke: none; stroke-width: 1; stroke-dasharray: none; stroke-linecap: butt; stroke-dashoffset: 0; stroke-linejoin: miter; stroke-miterlimit: 4; fill: rgb(92,84,106); fill-rule: nonzero; opacity: 1;"  transform=" translate(-240, -424)" d="M 61.632 400.544 C 105.562 449.319 169.191 480 240 480 s 134.438 -30.681 178.368 -79.456 c -7.66 -10.356 -18.462 -18.77 -32.352 -22.659 c -0.32 -0.09 -0.641 -0.16 -0.969 -0.207 l -63.859 -9.582 c -0.391 -0.059 -1.227 -0.09 -1.625 -0.09 c -4.039 0 -7.445 3.012 -7.938 7.023 c -4 32.48 -34.789 56.977 -71.625 56.977 c -36.844 0 -67.633 -24.492 -71.625 -56.977 c -0.5 -4.129 -4.219 -7.234 -8.141 -7.02 c -0.469 -0.027 -0.93 0.012 -1.422 0.086 l -63.859 9.582 c -0.328 0.047 -0.648 0.117 -0.969 0.207 C 80.094 381.775 69.292 390.188 61.632 400.544 z" stroke-linecap="round" />
</g>
</g>
</g>
</svg>