<?xml version="1.0" encoding="UTF-8" standalone="no" ?>
<!DOCTYPE svg PUBLIC "-//W3C//DTD SVG 1.1//EN" "http://www.w3.org/Graphics/SVG/1.1/DTD/svg11.dtd">
<svg xmlns="http://www.w3.org/2000/svg" xmlns:xlink="http://www.w3.org/1999/xlink" version="1.1" width="30" height="30" viewBox="0 0 30 30" xml:space="preserve" style="height:30px;">
<desc>Created with Fabric.js 3.6.6</desc>
<defs>
</defs>
<g transform="matrix(0.06 0 0 0.06 14.71 15.06)"  >
<g style=""   >
		<g transform="matrix(1 0 0 1 -0.01 -175.79)" id="Layer_1"  >
<path style="stroke: none; stroke-width: 1; stroke-dasharray: none; stroke-linecap: butt; stroke-dashoffset: 0; stroke-linejoin: miter; stroke-miterlimit: 4; fill: rgb(0,0,0); fill-rule: nonzero; opacity: 1;"  transform=" translate(-255.99, -80.21)" d="M 148.144 112.824 l -8 -0.36 C 141.734 76.156 171.658 47.552 208 47.6 h 96 c 36.198 -0.006 66.037 28.383 67.832 64.536 l -8 0.408 c -1.582 -31.893 -27.899 -56.94 -59.832 -56.944 h -96 C 175.944 55.57 149.554 80.8 148.144 112.824 z" stroke-linecap="round" />
</g>
		<g transform="matrix(1 0 0 1 0 100.4)" id="Layer_1"  >
<path style="stroke: none; stroke-width: 1; stroke-dasharray: none; stroke-linecap: butt; stroke-dashoffset: 0; stroke-linejoin: miter; stroke-miterlimit: 4; fill: rgb(204,204,204); fill-rule: nonzero; opacity: 1;"  transform=" translate(-256, -356.4)" d="M 300 248.401 v 28 c 0 11.046 -8.954 20 -20 20 h -48 c -11.046 0 -20 -8.954 -20 -20 v -28 H 16 v 184 c 0.053 17.651 14.349 31.947 32 32 h 416.001 c 17.651 -0.053 31.947 -14.349 32 -32 v -184 H 300 z" stroke-linecap="round" />
</g>
		<g transform="matrix(1 0 0 1 0 -19.8)" id="Layer_1"  >
<rect style="stroke: none; stroke-width: 1; stroke-dasharray: none; stroke-linecap: butt; stroke-dashoffset: 0; stroke-linejoin: miter; stroke-miterlimit: 4; fill: rgb(0,0,0); fill-rule: nonzero; opacity: 1;"  x="-19.9995" y="-35.7545" rx="0" ry="0" width="39.999" height="71.509" />
</g>
		<g transform="matrix(1 0 0 1 0 -89.44)" id="Layer_1"  >
<path style="stroke: none; stroke-width: 1; stroke-dasharray: none; stroke-linecap: butt; stroke-dashoffset: 0; stroke-linejoin: miter; stroke-miterlimit: 4; fill: rgb(204,204,204); fill-rule: nonzero; opacity: 1;"  transform=" translate(-256, -166.56)" d="M 480 109.769 c -0.399 -0.4 -41.6 -0.56 -98.832 -0.592 h -40.168 c -55.888 0 -120.001 0.136 -175.368 0.248 l -40.16 0.088 c -54.704 0.144 -93.472 0.256 -93.472 0.256 c -17.652 0.053 -31.948 14.349 -32.001 32 v 50.168 c 0.053 17.651 14.349 31.947 32 32 h 180 v -27.536 c 0 -11.046 8.954 -20 20 -20 h 48 c 11.046 0 20 8.954 20 20 v 27.504 h 180 c 17.651 -0.053 31.947 -14.349 32 -32 v -50.136 C 511.947 124.117 497.651 109.822 480 109.769 z" stroke-linecap="round" />
</g>
</g>
</g>
</svg>