<?xml version="1.0" encoding="UTF-8" standalone="no" ?>
<!DOCTYPE svg PUBLIC "-//W3C//DTD SVG 1.1//EN" "http://www.w3.org/Graphics/SVG/1.1/DTD/svg11.dtd">
<svg xmlns="http://www.w3.org/2000/svg" xmlns:xlink="http://www.w3.org/1999/xlink" version="1.1" width="30" height="30" viewBox="0 0 30 30" xml:space="preserve" style="height:30px;">
<desc>Created with Fabric.js 3.6.6</desc>
<defs>
</defs>
<g transform="matrix(0.06 0 0 0.06 14.63 15.01)"  >
<g style=""   >
		<g transform="matrix(1 0 0 1 0 0)" id="Layer_1"  >
<polygon style="stroke: none; stroke-width: 1; stroke-dasharray: none; stroke-linecap: butt; stroke-dashoffset: 0; stroke-linejoin: miter; stroke-miterlimit: 4; fill: rgb(235,240,243); fill-rule: nonzero; opacity: 1;"  points="81.19,-245.76 -183.42,-245.76 -183.42,245.76 183.42,245.76 183.42,-143.53 " />
</g>
		<g transform="matrix(1 0 0 1 132.31 -194.64)" id="Layer_1"  >
<polygon style="stroke: none; stroke-width: 1; stroke-dasharray: none; stroke-linecap: butt; stroke-dashoffset: 0; stroke-linejoin: miter; stroke-miterlimit: 4; fill: rgb(213,214,219); fill-rule: nonzero; opacity: 1;"  points="-51.12,51.12 51.12,51.12 -51.12,-51.12 " />
</g>
		<g transform="matrix(1 0 0 1 132.31 -108.09)" id="Layer_1"  >
<polygon style="stroke: none; stroke-width: 1; stroke-dasharray: none; stroke-linecap: butt; stroke-dashoffset: 0; stroke-linejoin: miter; stroke-miterlimit: 4; fill: rgb(225,230,233); fill-rule: nonzero; opacity: 1;"  points="51.12,-35.43 -51.12,-35.43 51.12,35.43 " />
</g>
		<g transform="matrix(1 0 0 1 -88.12 -135.12)" id="Layer_1"  >
<path style="stroke: none; stroke-width: 1; stroke-dasharray: none; stroke-linecap: butt; stroke-dashoffset: 0; stroke-linejoin: miter; stroke-miterlimit: 4; fill: rgb(246,195,88); fill-rule: nonzero; opacity: 1;"  transform=" translate(-157.64, -110.64)" d="M 157.6 124.931 l 0.043 0.028 l 0 0 v -0.038 l 0.019 0.026 l 0.023 -0.015 v -0.001 l 0.008 -0.01 v 0.005 l 16.108 -10.764 l 0.002 0.001 v -17.84 c -1.219 0.839 -2.388 1.748 -3.486 2.74 c -7.068 6.39 -14 5.295 -14 5.295 c -4.228 0.112 -10.251 -4.22 -12.82 -6.237 c -0.653 -0.514 -1.324 -1.004 -2.013 -1.469 v 17.511 l 0.001 -0.001 L 157.6 124.931 z" stroke-linecap="round" />
</g>
		<g transform="matrix(1 0 0 1 -90.72 -123.6)" id="Layer_1"  >
<polygon style="stroke: none; stroke-width: 1; stroke-dasharray: none; stroke-linecap: butt; stroke-dashoffset: 0; stroke-linejoin: miter; stroke-miterlimit: 4; fill: rgb(246,195,88); fill-rule: nonzero; opacity: 1;"  points="2.6,-3.55 2.61,-3.55 2.61,-3.55 2.61,-3.55 -2.61,3.55 -2.61,3.55 " />
</g>
		<g transform="matrix(1 0 0 1 -88.07 -193.52)" id="Layer_1"  >
<path style="stroke: none; stroke-width: 1; stroke-dasharray: none; stroke-linecap: butt; stroke-dashoffset: 0; stroke-linejoin: miter; stroke-miterlimit: 4; fill: rgb(100,121,138); fill-rule: nonzero; opacity: 1;"  transform=" translate(-157.69, -52.24)" d="M 184.576 77.31 c 0 0 0.931 -6.289 4.152 -11.454 c 0.782 -1.254 1.21 -2.696 1.21 -4.174 V 45.427 c 0 0 -1.015 -7.971 -8.84 -9.855 c 0 0 3.188 -6.787 -5.072 -8.393 h -30.433 l 0 0 c -11.124 0 -20.143 9.019 -20.143 20.143 v 11.942 c 0 2.587 0.866 5.105 2.486 7.123 c 1.275 1.587 2.599 4.083 2.803 7.695" stroke-linecap="round" />
</g>
		<g transform="matrix(1 0 0 1 -88.1 -169.36)" id="Layer_1"  >
<path style="stroke: none; stroke-width: 1; stroke-dasharray: none; stroke-linecap: butt; stroke-dashoffset: 0; stroke-linejoin: miter; stroke-miterlimit: 4; fill: rgb(252,212,98); fill-rule: nonzero; opacity: 1;"  transform=" translate(-157.66, -76.4)" d="M 156.316 107.742 c 0 0 6.932 1.095 14 -5.295 c 1.098 -0.992 2.267 -1.901 3.486 -2.74 c 0.12 -0.083 0.238 -0.169 0.358 -0.25 c 3.13 -2.102 9.141 -7.93 10.415 -22.147 V 58.47 c 0 0 -0.725 -6.667 -7.826 -9.275 l -10.554 -3.705 c -1.968 -0.691 -4.115 -0.664 -6.065 0.077 c -2.187 0.83 -5.074 1.904 -6.89 2.487 c -0.871 0.279 -1.778 0.417 -2.693 0.417 H 140.52 c 0 0 -7.826 1.014 -9.782 9.781 v 15.83 v 3.662 c 0 0 0.34 15.397 10.535 22.145 c 0.071 0.047 0.139 0.098 0.211 0.147 c 0.688 0.465 1.359 0.955 2.013 1.469 C 146.064 103.522 152.088 107.854 156.316 107.742 z" stroke-linecap="round" />
</g>
		<g transform="matrix(1 0 0 1 -80.86 -109.46)" id="Layer_1"  >
<polygon style="stroke: none; stroke-width: 1; stroke-dasharray: none; stroke-linecap: butt; stroke-dashoffset: 0; stroke-linejoin: miter; stroke-miterlimit: 4; fill: rgb(213,214,219); fill-rule: nonzero; opacity: 1;"  points="-2.04,-11.97 -5.34,-7.23 -2.29,11.97 5.34,-1.91 " />
</g>
		<g transform="matrix(1 0 0 1 -95.35 -109.44)" id="Layer_1"  >
<polygon style="stroke: none; stroke-width: 1; stroke-dasharray: none; stroke-linecap: butt; stroke-dashoffset: 0; stroke-linejoin: miter; stroke-miterlimit: 4; fill: rgb(213,214,219); fill-rule: nonzero; opacity: 1;"  points="2.52,13.13 5.86,-7.92 2.23,-13.13 -5.86,-2.11 " />
</g>
		<g transform="matrix(1 0 0 1 -90.83 -123.45)" id="Layer_1"  >
<polygon style="stroke: none; stroke-width: 1; stroke-dasharray: none; stroke-linecap: butt; stroke-dashoffset: 0; stroke-linejoin: miter; stroke-miterlimit: 4; fill: rgb(213,214,219); fill-rule: nonzero; opacity: 1;"  points="-2.5,3.4 -2.72,3.7 2.72,-3.67 2.72,-3.7 2.71,-3.7 " />
</g>
		<g transform="matrix(1 0 0 1 -88.1 -108.4)" id="Layer_1"  >
<polygon style="stroke: none; stroke-width: 1; stroke-dasharray: none; stroke-linecap: butt; stroke-dashoffset: 0; stroke-linejoin: miter; stroke-miterlimit: 4; fill: rgb(229,99,83); fill-rule: nonzero; opacity: 1;"  points="5.29,9.11 2.7,-7.21 5.5,-11.24 5.5,-11.24 -0.01,-18.75 -0.01,-18.75 -0.01,-18.72 -5.44,-11.35 -5.5,-11.27 -5.5,-11.27 -5.5,-11.27 -2.68,-7.21 -5.28,9.18 -5.28,9.18 -0.01,18.75 5.29,9.11 " />
</g>
		<g transform="matrix(1 0 0 1 -87.84 -89.84)" id="Layer_1"  >
<polygon style="stroke: none; stroke-width: 1; stroke-dasharray: none; stroke-linecap: butt; stroke-dashoffset: 0; stroke-linejoin: miter; stroke-miterlimit: 4; fill: rgb(229,99,83); fill-rule: nonzero; opacity: 1;"  points="-0.24,0.25 0.26,-0.25 -0.26,0.22 " />
</g>
		<g transform="matrix(1 0 0 1 -88.39 -89.84)" id="Layer_1"  >
<polygon style="stroke: none; stroke-width: 1; stroke-dasharray: none; stroke-linecap: butt; stroke-dashoffset: 0; stroke-linejoin: miter; stroke-miterlimit: 4; fill: rgb(229,99,83); fill-rule: nonzero; opacity: 1;"  points="0.26,0.22 -0.26,-0.25 0.24,0.25 " />
</g>
		<g transform="matrix(1 0 0 1 -88.12 -89.57)" id="Layer_1"  >
<polygon style="stroke: none; stroke-width: 1; stroke-dasharray: none; stroke-linecap: butt; stroke-dashoffset: 0; stroke-linejoin: miter; stroke-miterlimit: 4; fill: rgb(229,99,83); fill-rule: nonzero; opacity: 1;"  points="-0.02,0 0,0.02 0.02,0 0,-0.02 0,-0.02 0,-0.02 " />
</g>
		<g transform="matrix(1 0 0 1 -88.07 -127.18)" id="Layer_1"  >
<polygon style="stroke: none; stroke-width: 1; stroke-dasharray: none; stroke-linecap: butt; stroke-dashoffset: 0; stroke-linejoin: miter; stroke-miterlimit: 4; fill: rgb(229,99,83); fill-rule: nonzero; opacity: 1;"  points="0,0 0,0 0,0 " />
</g>
		<g transform="matrix(1 0 0 1 -88.11 -127.17)" id="Layer_1"  >
<polygon style="stroke: none; stroke-width: 1; stroke-dasharray: none; stroke-linecap: butt; stroke-dashoffset: 0; stroke-linejoin: miter; stroke-miterlimit: 4; fill: rgb(229,99,83); fill-rule: nonzero; opacity: 1;"  points="-0.01,-0.02 -0.01,0.02 0.01,0.01 " />
</g>
		<g transform="matrix(1 0 0 1 -75.69 -124.52)" id="Layer_1"  >
<polygon style="stroke: none; stroke-width: 1; stroke-dasharray: none; stroke-linecap: butt; stroke-dashoffset: 0; stroke-linejoin: miter; stroke-miterlimit: 4; fill: rgb(225,230,233); fill-rule: nonzero; opacity: 1;"  points="-12.38,-2.67 -12.38,-2.66 -12.38,-2.66 -12.41,-2.65 -12.43,-2.63 -12.43,-2.63 -12.43,-2.63 -12.43,-2.63 -12.43,-2.63 -6.91,4.88 -0.63,13.43 12.43,-10.31 3.73,-13.43 3.73,-13.43 " />
</g>
		<g transform="matrix(1 0 0 1 -100.54 -124.52)" id="Layer_1"  >
<polygon style="stroke: none; stroke-width: 1; stroke-dasharray: none; stroke-linecap: butt; stroke-dashoffset: 0; stroke-linejoin: miter; stroke-miterlimit: 4; fill: rgb(225,230,233); fill-rule: nonzero; opacity: 1;"  points="6.93,4.85 6.94,4.85 7.22,4.47 12.43,-2.63 12.43,-2.63 12.43,-2.63 12.38,-2.66 -3.73,-13.43 -3.73,-13.43 -12.43,-10.31 0.63,13.43 " />
</g>
		<g transform="matrix(1 0 0 1 -55.71 -112.19)" id="Layer_1"  >
<path style="stroke: none; stroke-width: 1; stroke-dasharray: none; stroke-linecap: butt; stroke-dashoffset: 0; stroke-linejoin: miter; stroke-miterlimit: 4; fill: rgb(58,85,106); fill-rule: nonzero; opacity: 1;"  transform=" translate(-190.05, -133.57)" d="M 157.675 156.176 l 0.018 0.032 h 6.797 h 51.92 c 3.717 0 6.545 -3.335 5.938 -7.002 l -2.925 -17.663 c -0.789 -4.764 -4.089 -8.731 -8.63 -10.374 l -28.297 -10.238" stroke-linecap="round" />
</g>
		<g transform="matrix(1 0 0 1 -88.09 -89.56)" id="Layer_1"  >
<polygon style="stroke: none; stroke-width: 1; stroke-dasharray: none; stroke-linecap: butt; stroke-dashoffset: 0; stroke-linejoin: miter; stroke-miterlimit: 4; fill: rgb(58,85,106); fill-rule: nonzero; opacity: 1;"  points="0,-0.01 -0.03,0.01 -0.03,0.01 0.03,0.01 " />
</g>
		<g transform="matrix(1 0 0 1 -71.93 -112.22)" id="Layer_1"  >
<polygon style="stroke: none; stroke-width: 1; stroke-dasharray: none; stroke-linecap: butt; stroke-dashoffset: 0; stroke-linejoin: miter; stroke-miterlimit: 4; fill: rgb(47,72,89); fill-rule: nonzero; opacity: 1;"  points="-10.88,12.94 -16.18,22.58 -16.18,22.58 -16.17,22.61 -15.65,22.13 9.97,-1.3 6.78,-7.39 16.18,-7.54 8.67,-22.61 -4.39,1.14 " />
</g>
		<g transform="matrix(1 0 0 1 -88.13 -89.59)" id="Layer_1"  >
<polygon style="stroke: none; stroke-width: 1; stroke-dasharray: none; stroke-linecap: butt; stroke-dashoffset: 0; stroke-linejoin: miter; stroke-miterlimit: 4; fill: rgb(47,72,89); fill-rule: nonzero; opacity: 1;"  points="-0.01,0.02 0.01,0 0.02,0 0,-0.02 -0.02,0.01 " />
</g>
		<g transform="matrix(1 0 0 1 -120.51 -112.19)" id="Layer_1"  >
<path style="stroke: none; stroke-width: 1; stroke-dasharray: none; stroke-linecap: butt; stroke-dashoffset: 0; stroke-linejoin: miter; stroke-miterlimit: 4; fill: rgb(58,85,106); fill-rule: nonzero; opacity: 1;"  transform=" translate(-125.25, -133.57)" d="M 157.619 156.183 l -0.008 -0.007 l -24.822 -45.245 l -28.297 10.238 c -4.541 1.643 -7.841 5.609 -8.63 10.373 l -2.925 17.665 c -0.607 3.666 2.222 7.001 5.939 7.001 h 51.97 h 4.013 h 0.05 h 2.734 h 0.001 L 157.619 156.183 z" stroke-linecap="round" />
</g>
		<g transform="matrix(1 0 0 1 -104.28 -112.19)" id="Layer_1"  >
<polygon style="stroke: none; stroke-width: 1; stroke-dasharray: none; stroke-linecap: butt; stroke-dashoffset: 0; stroke-linejoin: miter; stroke-miterlimit: 4; fill: rgb(47,72,89); fill-rule: nonzero; opacity: 1;"  points="16.19,22.61 16.18,22.58 16.16,22.55 16.16,22.55 10.89,12.98 4.37,1.11 -8.69,-22.64 -16.21,-7.57 -6.81,-7.42 -10,-1.34 15.62,22.1 16.14,22.58 16.16,22.59 16.16,22.59 16.18,22.61 16.21,22.64 " />
</g>
		<g transform="matrix(1 0 0 1 -0.02 -45.04)" id="Layer_1"  >
<rect style="stroke: none; stroke-width: 1; stroke-dasharray: none; stroke-linecap: butt; stroke-dashoffset: 0; stroke-linejoin: miter; stroke-miterlimit: 4; fill: rgb(213,214,219); fill-rule: nonzero; opacity: 1;"  x="-153.4285" y="-4.467" rx="0" ry="0" width="306.857" height="8.934" />
</g>
		<g transform="matrix(1 0 0 1 -0.02 -5.96)" id="Layer_1"  >
<rect style="stroke: none; stroke-width: 1; stroke-dasharray: none; stroke-linecap: butt; stroke-dashoffset: 0; stroke-linejoin: miter; stroke-miterlimit: 4; fill: rgb(213,214,219); fill-rule: nonzero; opacity: 1;"  x="-153.4285" y="-4.467" rx="0" ry="0" width="306.857" height="8.934" />
</g>
		<g transform="matrix(1 0 0 1 -0.02 33.09)" id="Layer_1"  >
<rect style="stroke: none; stroke-width: 1; stroke-dasharray: none; stroke-linecap: butt; stroke-dashoffset: 0; stroke-linejoin: miter; stroke-miterlimit: 4; fill: rgb(213,214,219); fill-rule: nonzero; opacity: 1;"  x="-153.4285" y="-4.467" rx="0" ry="0" width="306.857" height="8.934" />
</g>
		<g transform="matrix(1 0 0 1 -0.02 72.15)" id="Layer_1"  >
<rect style="stroke: none; stroke-width: 1; stroke-dasharray: none; stroke-linecap: butt; stroke-dashoffset: 0; stroke-linejoin: miter; stroke-miterlimit: 4; fill: rgb(213,214,219); fill-rule: nonzero; opacity: 1;"  x="-153.4285" y="-4.467" rx="0" ry="0" width="306.857" height="8.934" />
</g>
		<g transform="matrix(1 0 0 1 -0.02 111.2)" id="Layer_1"  >
<rect style="stroke: none; stroke-width: 1; stroke-dasharray: none; stroke-linecap: butt; stroke-dashoffset: 0; stroke-linejoin: miter; stroke-miterlimit: 4; fill: rgb(213,214,219); fill-rule: nonzero; opacity: 1;"  x="-153.4285" y="-4.467" rx="0" ry="0" width="306.857" height="8.934" />
</g>
		<g transform="matrix(1 0 0 1 -0.02 150.28)" id="Layer_1"  >
<rect style="stroke: none; stroke-width: 1; stroke-dasharray: none; stroke-linecap: butt; stroke-dashoffset: 0; stroke-linejoin: miter; stroke-miterlimit: 4; fill: rgb(213,214,219); fill-rule: nonzero; opacity: 1;"  x="-153.4285" y="-4.467" rx="0" ry="0" width="306.857" height="8.934" />
</g>
		<g transform="matrix(1 0 0 1 -28.19 189.3)" id="Layer_1"  >
<rect style="stroke: none; stroke-width: 1; stroke-dasharray: none; stroke-linecap: butt; stroke-dashoffset: 0; stroke-linejoin: miter; stroke-miterlimit: 4; fill: rgb(213,214,219); fill-rule: nonzero; opacity: 1;"  x="-125.253" y="-4.467" rx="0" ry="0" width="250.506" height="8.934" />
</g>
</g>
</g>
</svg>