<?xml version="1.0" encoding="UTF-8" standalone="no" ?>
<!DOCTYPE svg PUBLIC "-//W3C//DTD SVG 1.1//EN" "http://www.w3.org/Graphics/SVG/1.1/DTD/svg11.dtd">
<svg xmlns="http://www.w3.org/2000/svg" xmlns:xlink="http://www.w3.org/1999/xlink" version="1.1" width="30" height="30" viewBox="0 0 30 30" xml:space="preserve" style="height: 30px;">
<desc>Created with Fabric.js 3.6.6</desc>
<defs>
</defs>
<g transform="matrix(0.51 0 0 0.51 14.3 14.3)"  >
<g style=""   >
		<g transform="matrix(1 0 0 1 0 0)" id="Capa_1"  >
<path style="stroke: none; stroke-width: 1; stroke-dasharray: none; stroke-linecap: butt; stroke-dashoffset: 0; stroke-linejoin: miter; stroke-miterlimit: 4; fill: rgb(231,236,237); fill-rule: nonzero; opacity: 1;"  transform=" translate(-26, -26)" d="M 50.219 21 h -2.797 c -0.552 -2.375 -1.486 -4.602 -2.739 -6.613 l 1.978 -1.978 c 0.695 -0.695 0.695 -1.823 0 -2.518 l -4.553 -4.553 c -0.695 -0.695 -1.823 -0.695 -2.518 0 l -1.978 1.978 C 35.602 6.064 33.375 5.13 31 4.578 V 1.781 C 31 0.797 30.203 0 29.219 0 h -6.439 C 21.797 0 21 0.797 21 1.781 v 2.797 c -2.375 0.552 -4.602 1.486 -6.613 2.739 L 12.41 5.339 c -0.695 -0.695 -1.823 -0.695 -2.518 0 L 5.339 9.892 c -0.695 0.695 -0.695 1.823 0 2.518 l 1.978 1.978 C 6.064 16.398 5.13 18.625 4.578 21 H 1.781 C 0.797 21 0 21.797 0 22.781 v 6.439 C 0 30.203 0.797 31 1.781 31 h 2.797 c 0.552 2.375 1.486 4.602 2.739 6.613 L 5.339 39.59 c -0.695 0.696 -0.695 1.823 0 2.518 l 4.553 4.553 c 0.695 0.695 1.823 0.695 2.518 0 l 1.978 -1.978 c 2.011 1.252 4.238 2.187 6.613 2.739 v 2.797 C 21 51.203 21.797 52 22.781 52 h 6.439 C 30.203 52 31 51.203 31 50.219 v -2.797 c 2.375 -0.552 4.602 -1.486 6.613 -2.739 l 1.978 1.978 c 0.695 0.695 1.823 0.695 2.518 0 l 4.553 -4.553 c 0.695 -0.695 0.695 -1.823 0 -2.518 l -1.978 -1.978 c 1.252 -2.01 2.186 -4.238 2.739 -6.613 h 2.797 C 51.203 31 52 30.203 52 29.219 v -6.439 C 52 21.797 51.203 21 50.219 21 z M 26 35 c -4.971 0 -9 -4.03 -9 -9 c 0 -4.971 4.029 -9 9 -9 s 9 4.029 9 9 C 35 30.97 30.971 35 26 35 z" stroke-linecap="round" />
</g>
		<g transform="matrix(1 0 0 1 0 0)" id="Capa_1"  >
<path style="stroke: none; stroke-width: 1; stroke-dasharray: none; stroke-linecap: butt; stroke-dashoffset: 0; stroke-linejoin: miter; stroke-miterlimit: 4; fill: rgb(199,202,199); fill-rule: nonzero; opacity: 1;"  transform=" translate(-26, -26)" d="M 26 13 c -7.18 0 -13 5.82 -13 13 s 5.82 13 13 13 s 13 -5.82 13 -13 S 33.18 13 26 13 z M 26 35 c -4.971 0 -9 -4.03 -9 -9 c 0 -4.971 4.029 -9 9 -9 s 9 4.029 9 9 C 35 30.97 30.971 35 26 35 z" stroke-linecap="round" />
</g>
</g>
</g>
</svg>